<?xml version="1.0" encoding="UTF-8"?>
<svg id="_图层_1" data-name="图层 1" xmlns="http://www.w3.org/2000/svg" viewBox="0 0 1080 1080">
  <defs>
    <style>
      .cls-1 {
        fill: #3d7b52;
      }
    </style>
  </defs>
  <path class="cls-1" d="M1004.64,234.58c-54.69,14.14-110.56,15.45-166.59,15.66-40.53.15-81.05,1.66-121.57,1.75-12.45.03-20.63,4.79-28.08,14.32-15.45,19.76-31.67,38.93-48.03,57.96-2.31,2.69-7.15,3.22-10.82,4.74-.85-3.79-3.18-7.98-2.27-11.29,3.48-12.76,7.78-25.31,12.18-37.79,2.69-7.62,6.12-14.98,9.48-23.07-2.62-.6-3.97-1.25-5.27-1.16-72.55,4.99-143.76,17.24-213.25,39.05-8.47,2.66-13.07,8.2-16.14,15.87-14.88,37.12-26.09,75.24-29.55,115.22-.92,10.61-5.04,13.94-15.47,13.96-10.52.02-15.33-3.3-14.99-14.04.93-29.72,1.58-59.44,2.38-89.16.09-3.42.45-6.83.91-13.56-59.63,28.34-105.25,67.94-137.1,122.66-47.21,81.09-57.54,168.51-45.02,260.11-.41.4-.83.75-1.24,1.21-13.14,14.52-27.59,28.02-39.49,43.48-24.13,31.37-47.35,63.44-70.3,95.68h56.26c24.27-33.44,51.02-64.94,79.11-95.38,11.09,7.6,20.51,15.07,30.85,20.9,74.88,42.25,156.03,57.52,240.73,49.75,109.53-10.04,205.41-55.08,291.52-122.2,2.59-2.02,4.67-4.71,8.21-8.35-5.23-1.24-8.23-2.21-11.31-2.63-38.86-5.41-75.16-17.98-108.84-38.22-5.05-3.03-9.31-5.19-5.72-12.22,3.14-6.15,4.94-13.35,14.42-10.47,3.09.94,6.21,1.76,9.31,2.65,55.24,15.99,109.81,14.21,163.54-6.54,3.86-1.49,7.56-4.25,10.43-7.27,8.15-8.57,16.14-17.32,23.65-26.45,36.42-44.29,65.85-92.98,89.67-145.04,29.27-63.96,50.17-130.42,59.12-200.41,1.17-9.18-1.9-11.98-10.72-9.7ZM680.45,434.57c-72.8,27.81-143.28,60.55-211.05,99.21-88.05,50.24-168.57,110.2-239.69,182.55-4.87,4.95-9.49,10.15-14.18,15.56-1.44-2.57-2.35-5.06-4.02-6.8-6.16-6.42-12.57-12.61-18.95-18.83-2.69-2.62-5.31-4.01-7.89-4.32.93-.88,1.88-1.74,2.81-2.61,35.19-32.65,68.81-67.22,105.92-97.51,70.55-57.58,147.74-105.53,230.88-142.78,48.34-21.66,98.71-38.8,148.07-58.23,8.48-3.34,12.88-1.13,14.69,7.54.51,2.44,1.33,4.86,2.31,7.16,4.16,9.74,1.8,14.97-8.9,19.06Z"/>
</svg>